<svg width="120" height="21" viewBox="0 0 120 21" fill="none" xmlns="http://www.w3.org/2000/svg">
<path d="M3.47789 0H8.94022L12.3874 13.9616H12.6329L20.7241 0H26.1865L22.7086 20.78H18.4124L20.6832 7.25475H20.4991L12.8477 20.6786H9.91199L6.76143 7.20401H6.58753L4.29622 20.78H0L3.47789 0Z" fill="#3B82F6"/>
<path d="M29.8357 0H35.298L38.7452 13.9616H38.9907L47.0819 0H52.5443L49.0664 20.78H44.7702L47.041 7.25475H46.8569L39.2055 20.6786H36.2698L33.1192 7.20401H32.9453L30.654 20.78H26.3578L29.8357 0Z" fill="#3B82F6"/>
<path d="M56.3265 20.78H51.5802L62.29 0H67.9979L71.7417 20.78H66.9954L64.4484 4.74856H64.2847L56.3265 20.78ZM57.4108 12.6121H68.6218L68.0286 16.0416H56.8175L57.4108 12.6121Z" fill="#0F172A"/>
<path d="M85.372 14.1442L86.8757 5.19501H91.2333L88.6146 20.78H84.4309L84.9014 17.9492H84.7378C84.2536 18.8623 83.5478 19.5963 82.6204 20.1509C81.6929 20.7056 80.6393 20.983 79.4596 20.983C78.4094 20.983 77.5229 20.7462 76.8 20.2727C76.084 19.7992 75.5759 19.1262 75.2759 18.2536C74.9758 17.381 74.9247 16.3359 75.1224 15.1183L76.8 5.19501H81.1576L79.6232 14.3472C79.48 15.2671 79.6096 15.9943 80.0119 16.5286C80.4143 17.063 81.028 17.3302 81.8532 17.3302C82.3783 17.3302 82.8863 17.2118 83.3773 16.9751C83.8751 16.7316 84.3047 16.3731 84.6662 15.8996C85.0276 15.4261 85.2629 14.8409 85.372 14.1442Z" fill="#0F172A"/>
<path d="M103.076 5.19501L102.534 8.44189H93.0617L93.6141 5.19501H103.076ZM96.3759 1.4611H100.734L98.299 15.9909C98.2308 16.39 98.241 16.7011 98.3297 16.9244C98.4183 17.1408 98.5649 17.293 98.7695 17.381C98.9809 17.4689 99.2332 17.5129 99.5265 17.5129C99.7311 17.5129 99.9391 17.4959 100.15 17.4621C100.362 17.4215 100.522 17.3911 100.631 17.3708L100.795 20.5872C100.549 20.6617 100.219 20.7428 99.8027 20.8308C99.3935 20.9187 98.9093 20.9728 98.3501 20.9931C97.2863 21.0337 96.3861 20.895 95.6497 20.5771C94.9132 20.2524 94.3847 19.7552 94.0641 19.0856C93.7436 18.4159 93.6754 17.5737 93.8596 16.5591L96.3759 1.4611Z" fill="#0F172A"/>
<path d="M109.525 11.7699L108.012 20.78H103.664L107.142 0H111.367L110.057 7.94471H110.231C110.736 7.02476 111.428 6.30436 112.308 5.7835C113.187 5.25589 114.227 4.99208 115.428 4.99208C116.519 4.99208 117.429 5.22883 118.159 5.70233C118.895 6.16907 119.417 6.84212 119.724 7.72149C120.031 8.59409 120.082 9.63918 119.877 10.8568L118.2 20.78H113.852L115.387 11.6279C115.544 10.6674 115.417 9.91989 115.008 9.38551C114.606 8.85113 113.965 8.58394 113.085 8.58394C112.492 8.58394 111.946 8.70908 111.448 8.95936C110.951 9.20964 110.531 9.57491 110.19 10.0552C109.856 10.5287 109.635 11.1003 109.525 11.7699Z" fill="#0F172A"/>
</svg>
