<svg width="16" height="16" viewBox="0 0 16 16" fill="none" xmlns="http://www.w3.org/2000/svg">
<g id="CaretUp">
<path id="Vector" d="M13.3538 10.3538C13.3073 10.4003 13.2522 10.4371 13.1915 10.4623C13.1308 10.4875 13.0657 10.5004 13 10.5004C12.9343 10.5004 12.8693 10.4875 12.8086 10.4623C12.7479 10.4371 12.6927 10.4003 12.6463 10.3538L8.00003 5.7069L3.35378 10.3538C3.25996 10.4476 3.13272 10.5003 3.00003 10.5003C2.86735 10.5003 2.7401 10.4476 2.64628 10.3538C2.55246 10.26 2.49976 10.1327 2.49976 10C2.49976 9.86735 2.55246 9.7401 2.64628 9.64628L7.64628 4.64628C7.69272 4.59979 7.74786 4.56291 7.80856 4.53775C7.86926 4.51259 7.93433 4.49963 8.00003 4.49963C8.06574 4.49963 8.1308 4.51259 8.1915 4.53775C8.2522 4.56291 8.30735 4.59979 8.35378 4.64628L13.3538 9.64628C13.4003 9.69271 13.4372 9.74786 13.4623 9.80856C13.4875 9.86926 13.5004 9.93432 13.5004 10C13.5004 10.0657 13.4875 10.1308 13.4623 10.1915C13.4372 10.2522 13.4003 10.3073 13.3538 10.3538Z" fill="#475569"/>
</g>
</svg>
