<svg width="16" height="16" viewBox="0 0 16 16" fill="none" xmlns="http://www.w3.org/2000/svg">
<g id="Users">
<path id="Vector" d="M10.2793 12.2269C10.3285 12.3023 10.3564 12.3896 10.3601 12.4796C10.3638 12.5696 10.3431 12.6589 10.3002 12.7381C10.2573 12.8173 10.1938 12.8835 10.1164 12.9296C10.039 12.9756 9.95066 13 9.86059 13H0.639343C0.549278 13 0.460888 12.9756 0.383512 12.9296C0.306136 12.8835 0.242647 12.8173 0.199752 12.7381C0.156858 12.6589 0.136151 12.5696 0.139819 12.4796C0.143488 12.3896 0.171395 12.3023 0.220593 12.2269C0.924409 11.1435 1.95965 10.3168 3.17184 9.87C2.50172 9.42386 1.99295 8.77392 1.72078 8.01628C1.44861 7.25863 1.42748 6.43351 1.66053 5.66293C1.89357 4.89235 2.36841 4.21723 3.01483 3.73739C3.66124 3.25755 4.44492 2.99847 5.24997 2.99847C6.05502 2.99847 6.83869 3.25755 7.48511 3.73739C8.13153 4.21723 8.60637 4.89235 8.83941 5.66293C9.07245 6.43351 9.05133 7.25863 8.77916 8.01628C8.50699 8.77392 7.99822 9.42386 7.32809 9.87C8.54029 10.3168 9.57553 11.1435 10.2793 12.2269ZM15.7737 12.2175C15.0697 11.1387 14.0368 10.3155 12.8281 9.87C13.6192 9.33709 14.1775 8.52275 14.3894 7.59271C14.6012 6.66268 14.4507 5.68686 13.9685 4.86389C13.4862 4.04091 12.7085 3.43264 11.7936 3.16289C10.8786 2.89313 9.89531 2.98217 9.04372 3.41187C9.01115 3.42868 8.98269 3.45245 8.96033 3.48149C8.93797 3.51053 8.92227 3.54413 8.91434 3.5799C8.90641 3.61568 8.90644 3.65277 8.91443 3.68854C8.92243 3.7243 8.93818 3.75787 8.96059 3.78687C9.59382 4.57675 9.95749 5.54865 9.99831 6.56019C10.0391 7.57174 9.75498 8.56978 9.18747 9.40812C9.15079 9.46291 9.13723 9.52997 9.14976 9.5947C9.16228 9.65943 9.19987 9.7166 9.25434 9.75375C9.99428 10.2702 10.6277 10.9244 11.12 11.6806C11.3185 11.9847 11.3996 12.3506 11.3481 12.71C11.3423 12.7458 11.3443 12.7823 11.3541 12.8172C11.3638 12.8521 11.381 12.8845 11.4045 12.9121C11.428 12.9396 11.4572 12.9618 11.4901 12.977C11.523 12.9922 11.5587 13 11.595 13H15.3637C15.4738 13 15.5808 12.9637 15.6682 12.8967C15.7556 12.8297 15.8184 12.7357 15.8468 12.6294C15.8642 12.5594 15.8667 12.4866 15.8541 12.4157C15.8415 12.3447 15.8141 12.2772 15.7737 12.2175Z" fill="#CBD5E1"/>
</g>
</svg>
